/* XPM */
static char * mozicon16_xpm[] = {
"14 16 121 2",
" 	c None",
". 	c #080808",
"+ 	c #020D11",
"@ 	c #023748",
"# 	c #021F27",
"$ 	c #020202",
"% 	c #5C6971",
"& 	c #7B919B",
"* 	c #7F97A0",
"= 	c #0F212B",
"- 	c #00526F",
"; 	c #02546F",
"> 	c #7E7E7E",
", 	c #91ACBB",
"' 	c #BEE3F7",
") 	c #162E37",
"! 	c #00A5D9",
"~ 	c #04546D",
"{ 	c #373737",
"] 	c #323232",
"^ 	c #999999",
"/ 	c #92ADBC",
"( 	c #BFE2F7",
"_ 	c #164758",
": 	c #00B6EF",
"< 	c #04546E",
"[ 	c #262626",
"} 	c #92ADBB",
"| 	c #164757",
"1 	c #242424",
"2 	c #92ACBB",
"3 	c #BFE3F7",
"4 	c #00B6F0",
"5 	c #015069",
"6 	c #0E0E0F",
"7 	c #3D3E3F",
"8 	c #565858",
"9 	c #727272",
"0 	c #163542",
"a 	c #006A91",
"b 	c #00526E",
"c 	c #011419",
"d 	c #014357",
"e 	c #00769A",
"f 	c #0094C3",
"g 	c #05485D",
"h 	c #8C8D8D",
"i 	c #95AFC0",
"j 	c #163441",
"k 	c #006693",
"l 	c #022E41",
"m 	c #5D6E76",
"n 	c #647780",
"o 	c #273035",
"p 	c #006F91",
"q 	c #00B4ED",
"r 	c #0D4252",
"s 	c #95B0C0",
"t 	c #164656",
"u 	c #00B2EA",
"v 	c #034F66",
"w 	c #1B2124",
"x 	c #2E373B",
"y 	c #3D474E",
"z 	c #0A3544",
"A 	c #007BA2",
"B 	c #5B5B5B",
"C 	c #6E808C",
"D 	c #8096A1",
"E 	c #0F3D4D",
"F 	c #045169",
"G 	c #23292D",
"H 	c #5F686E",
"I 	c #7F8B92",
"J 	c #1D353D",
"K 	c #00B0E8",
"L 	c #0096C6",
"M 	c #131313",
"N 	c #164251",
"O 	c #04526A",
"P 	c #23292C",
"Q 	c #2A424A",
"R 	c #00B1E8",
"S 	c #0093C1",
"T 	c #2D2D2D",
"U 	c #656565",
"V 	c #084456",
"W 	c #00B5EE",
"X 	c #007093",
"Y 	c #434343",
"Z 	c #454545",
"` 	c #164351",
" .	c #024F67",
"..	c #131619",
"+.	c #484949",
"@.	c #21383E",
"#.	c #223A42",
"$.	c #444444",
"%.	c #606060",
"&.	c #16353F",
"*.	c #007DA4",
"=.	c #006889",
"-.	c #001820",
";.	c #00475C",
">.	c #00779D",
",.	c #016280",
"'.	c #2A3E44",
").	c #959595",
"!.	c #1F596A",
"~.	c #275D6D",
"{.	c #27424B",
"].	c #273E45",
"^.	c #285765",
"/.	c #3A5C66",
"(.	c #4C4C4C",
"_.	c #171717",
":.	c #2A2A2A",
"<.	c #232323",
"[.	c #1E1E1E",
"}.	c #1D1D1D",
"|.	c #353535",
"    . + @ # $               ",
"% & * = - ; >               ",
"  , ' ) ! ~ { ] ^           ",
"  / ( _ : < [               ",
"  } ( | : < 1               ",
"  2 3 _ 4 5 6 7 8 9         ",
"  / ' 0 a b c d e f g h     ",
"  i ' j k l m n o p q r     ",
"  s ( t u v w x y z q A B   ",
"  C D E 4 F G H I J K L M   ",
"      N : O P     Q R S T U ",
"      N 4 O P     V W X Y Z ",
"      ` 4  ...+.@.L ! #.$.%.",
"      &.*.=.-.;.>.,.'.).. ^ ",
"        !.~.{.].^./.(._.:.  ",
"          <.[.[.[.}.[.|.    "};
