/* XPM */
static char * mozicon_xpm[] = {
"28 32 361 2",
"  	c None",
". 	c #111111",
"+ 	c #040404",
"@ 	c #040406",
"# 	c #636363",
"$ 	c #999999",
"% 	c #0A0A0A",
"& 	c #000000",
"* 	c #002C3C",
"= 	c #006483",
"- 	c #006F92",
"; 	c #006582",
"> 	c #000C0F",
", 	c #5F5F5F",
"' 	c #545D64",
") 	c #59636D",
"! 	c #566067",
"~ 	c #4A575B",
"{ 	c #384449",
"] 	c #384149",
"^ 	c #0D0F0F",
"/ 	c #001C29",
"( 	c #00374F",
"_ 	c #00698B",
": 	c #0095C4",
"< 	c #02131A",
"[ 	c #313131",
"} 	c #434343",
"| 	c #858585",
"1 	c #617077",
"2 	c #63727A",
"3 	c #849EAF",
"4 	c #C7EEFB",
"5 	c #C5EAFA",
"6 	c #C7EBF6",
"7 	c #2F383F",
"8 	c #002233",
"9 	c #00405E",
"0 	c #006685",
"a 	c #0091BF",
"b 	c #08171D",
"c 	c #A1A1A1",
"d 	c #61717B",
"e 	c #C2E5FB",
"f 	c #BDE2F7",
"g 	c #BFE4F6",
"h 	c #2D363B",
"i 	c #001E28",
"j 	c #008EB9",
"k 	c #00A8DD",
"l 	c #08181D",
"m 	c #5B5B5B",
"n 	c #383838",
"o 	c #353535",
"p 	c #333333",
"q 	c #4E4E4E",
"r 	c #A7A7A7",
"s 	c #62727B",
"t 	c #C2E7FB",
"u 	c #BDE3F8",
"v 	c #BFE6F7",
"w 	c #003040",
"x 	c #00A9DE",
"y 	c #00B5EF",
"z 	c #0090BE",
"A 	c #08181C",
"B 	c #464646",
"C 	c #1F1F1F",
"D 	c #414141",
"E 	c #5A5A5A",
"F 	c #62727C",
"G 	c #BDE0F7",
"H 	c #C2E3F6",
"I 	c #2D363D",
"J 	c #005974",
"K 	c #00B7F2",
"L 	c #00B5ED",
"M 	c #0090BF",
"N 	c #494949",
"O 	c #616161",
"P 	c #BDE2F8",
"Q 	c #BFE4F7",
"R 	c #005874",
"S 	c #00B7F1",
"T 	c #474747",
"U 	c #C2E9FB",
"V 	c #BDE1F7",
"W 	c #C2E2F5",
"X 	c #62717B",
"Y 	c #BDE0F8",
"Z 	c #BFE5F7",
"` 	c #005774",
" .	c #00B5EC",
"..	c #424242",
"+.	c #030303",
"@.	c #005A74",
"#.	c #008FBD",
"$.	c #061519",
"%.	c #ACACAC",
"&.	c #B6B6B6",
"*.	c #C2E4F7",
"=.	c #008DBB",
"-.	c #000E14",
";.	c #010104",
">.	c #010406",
",.	c #020306",
"'.	c #000404",
").	c #262626",
"!.	c #5C5C5C",
"~.	c #C2C2C2",
"{.	c #BFE5F6",
"].	c #00465A",
"^.	c #008EBB",
"/.	c #008CB9",
"(.	c #0086B1",
"_.	c #007599",
":.	c #003E50",
"<.	c #000101",
"[.	c #004156",
"}.	c #008DB9",
"|.	c #0093C0",
"1.	c #0098C7",
"2.	c #0089B3",
"3.	c #005D7C",
"4.	c #012531",
"5.	c #151617",
"6.	c #909090",
"7.	c #63737D",
"8.	c #002134",
"9.	c #004969",
"0.	c #004667",
"a.	c #003954",
"b.	c #00141A",
"c.	c #020D10",
"d.	c #030404",
"e.	c #03141A",
"f.	c #022934",
"g.	c #003546",
"h.	c #00789C",
"i.	c #00B4EE",
"j.	c #00B5F1",
"k.	c #00A2D4",
"l.	c #004359",
"m.	c #0F1212",
"n.	c #9D9D9D",
"o.	c #A7A8A8",
"p.	c #677885",
"q.	c #BCE2F7",
"r.	c #C0E4F7",
"s.	c #004465",
"t.	c #008DD0",
"u.	c #008DCD",
"v.	c #006DA0",
"w.	c #050F15",
"x.	c #5D6F73",
"y.	c #758C96",
"z.	c #758B96",
"A.	c #748991",
"B.	c #3B464E",
"C.	c #040B0C",
"D.	c #006080",
"E.	c #00B2EB",
"F.	c #002E3B",
"G.	c #2C2C2C",
"H.	c #A8A8A8",
"I.	c #697884",
"J.	c #BFE3F6",
"K.	c #001E29",
"L.	c #004058",
"M.	c #004056",
"N.	c #003143",
"O.	c #05090B",
"P.	c #4C5961",
"Q.	c #54626D",
"R.	c #53646C",
"S.	c #54636C",
"T.	c #4B5A62",
"U.	c #121518",
"V.	c #000A0C",
"W.	c #009BCA",
"X.	c #00B5EE",
"Y.	c #0091C0",
"Z.	c #081B22",
"`.	c #00556D",
" +	c #00AFE5",
".+	c #00ADE2",
"++	c #0087B0",
"@+	c #051215",
"#+	c #263032",
"$+	c #010202",
"%+	c #040405",
"&+	c #030405",
"*+	c #010101",
"=+	c #006387",
"-+	c #00B0E7",
";+	c #002F3F",
">+	c #697885",
",+	c #BCE3F7",
"'+	c #C0E2F5",
")+	c #008BB8",
"!+	c #08171A",
"~+	c #425057",
"{+	c #3B474C",
"]+	c #798E9A",
"^+	c #768A9A",
"/+	c #778B95",
"(+	c #293337",
"_+	c #003C51",
":+	c #00B3EB",
"<+	c #00B8F1",
"[+	c #005771",
"}+	c #9E9E9E",
"|+	c #687885",
"1+	c #C2E6FA",
"2+	c #BBDEF2",
"3+	c #B7D9E5",
"4+	c #2C3438",
"5+	c #008EBA",
"6+	c #08161A",
"7+	c #424E56",
"8+	c #424C54",
"9+	c #859DAA",
"0+	c #8097A5",
"a+	c #7C929F",
"b+	c #363F45",
"c+	c #002D3B",
"d+	c #00ADE3",
"e+	c #00B8F3",
"f+	c #007093",
"g+	c #090909",
"h+	c #0D0D0D",
"i+	c #8E8E8E",
"j+	c #868A8B",
"k+	c #3A4147",
"l+	c #526069",
"m+	c #47525A",
"n+	c #465154",
"o+	c #121415",
"p+	c #008CB7",
"q+	c #08151A",
"r+	c #424E55",
"s+	c #3B3B3B",
"t+	c #7D7E7E",
"u+	c #7F8080",
"v+	c #828383",
"w+	c #404040",
"x+	c #002A37",
"y+	c #00AAE2",
"z+	c #00799E",
"A+	c #272727",
"B+	c #4E4F4F",
"C+	c #94A6AD",
"D+	c #B1C4CC",
"E+	c #B6C8D3",
"F+	c #2D2D2D",
"G+	c #012C3A",
"H+	c #00ACE1",
"I+	c #007699",
"J+	c #151515",
"K+	c #424E54",
"L+	c #505050",
"M+	c #484848",
"N+	c #003648",
"O+	c #00B1E8",
"P+	c #00B9F3",
"Q+	c #006586",
"R+	c #202020",
"S+	c #454545",
"T+	c #0B0B0B",
"U+	c #008DB8",
"V+	c #525252",
"W+	c #222222",
"X+	c #005672",
"Y+	c #00B3ED",
"Z+	c #004459",
"`+	c #3C3C3C",
" @	c #060606",
".@	c #8C8C8C",
"+@	c #585858",
"@@	c #797979",
"#@	c #000507",
"$@	c #0092BE",
"%@	c #00B7F0",
"&@	c #00A8DC",
"*@	c #03202A",
"=@	c #6A6A6A",
"-@	c #242424",
";@	c #7D7D7D",
">@	c #071419",
",@	c #3C4650",
"'@	c #030304",
")@	c #727272",
"!@	c #111414",
"~@	c #004961",
"{@	c #00B6EE",
"]@	c #00516D",
"^@	c #1E2122",
"/@	c #949494",
"(@	c #010F12",
"_@	c #0B0E10",
":@	c #111213",
"<@	c #1D1F20",
"[@	c #030F12",
"}@	c #004B60",
"|@	c #00779A",
"1@	c #010A0D",
"2@	c #6B6B6B",
"3@	c #767676",
"4@	c #121212",
"5@	c #005A77",
"6@	c #00B9F2",
"7@	c #00A6DB",
"8@	c #007397",
"9@	c #003B4F",
"0@	c #003748",
"a@	c #007BA2",
"b@	c #00A4D4",
"c@	c #00B7F4",
"d@	c #0091BE",
"e@	c #00465C",
"f@	c #646464",
"g@	c #B8B8B8",
"h@	c #252525",
"i@	c #2B2D2D",
"j@	c #00212A",
"k@	c #004258",
"l@	c #004457",
"m@	c #004356",
"n@	c #00445A",
"o@	c #00252F",
"p@	c #00232C",
"q@	c #004357",
"r@	c #004054",
"s@	c #002B3B",
"t@	c #07171D",
"u@	c #242627",
"v@	c #818181",
"w@	c #5D5D5D",
"x@	c #696969",
"y@	c #525656",
"z@	c #323333",
"A@	c #333636",
"B@	c #333738",
"C@	c #333638",
"D@	c #333637",
"E@	c #323436",
"F@	c #373A3B",
"G@	c #4B4D4E",
"H@	c #545656",
"I@	c #545454",
"J@	c #080808",
"K@	c #191919",
"L@	c #315F6C",
"M@	c #181818",
"N@	c #070707",
"O@	c #8A8A8A",
"P@	c #0C0C0C",
"Q@	c #1D1D1D",
"R@	c #757575",
"S@	c #393939",
"T@	c #6D6D6D",
"        . + + + @ + + + + + #                           ",
"      $ % & & * = - ; > & & ,                           ",
"' ) ! ~ { ] ^ / ( _ : < [ } |                           ",
"1 2 3 4 5 6 7 8 9 0 a b c                               ",
"    d e f g h i j k a l m n o p q                       ",
"  r s t u v h w x y z A B + C D E                       ",
"  r F t G H I J K L M l N + O                           ",
"  r F t P Q h R S L M l T + ,                           ",
"  r F U V W h J S y M l B + ,                           ",
"  r X t Y Z h ` S  .M l ..+.O                           ",
"  r X t f g h @.S y #.$.o +.N %.%.%.&.                  ",
"  r F t V *.I ` S y =.-.;.& & >.,.'.% ).!.~.            ",
"  r F t f {.h ].^./.(._.:.<.[.}.|.1.2.3.4.5.6.          ",
"  r 7.t G H I 8.9.0.a.b.c.d.e.f.g.h.i.j.k.l.m.n.        ",
"  o.p.t q.r.h s.t.u.v.w.x.y.z.A.B.C.D.L y E.F.G.        ",
"  H.I.e f J.h K.L.M.N.O.P.Q.R.S.T.U.V.W.X.L Y.Z.$       ",
"  H.I.t Y *.I `. +.+++@+#+$+$+%+&+%+*+=+y y -+;+n       ",
"  H.>+t ,+'+h ` S y )+!+~+d.{+]+^+/+(+_+:+L <+[+& !.    ",
"  }+|+1+2+3+4+` S y 5+6+7+d.8+9+0+a+b+c+d+L e+f+g+h+i+  ",
"  j+k+l+m+n+o+` S y p+q+r+d.s+t+u+v+w+x+y+L S z+. A+s+  ",
"    B+C+D+E+F+` S y 5+6+r+d.#       , G+H+L S I+J+s+J+  ",
"            F+R S  .}.6+K+d.L+      M+N+O+ .P+Q+R+S+T+  ",
"            F+J S y U+6+K+d.V+      W+X+X. .Y+Z+`+.. @.@",
"            F+` S y 5+6+r+d.+@    @@#@$@%@L &@*@=@-@ @;@",
"            F+@.S y p+>@,@'@L+  )@!@~@:+X.{@]@^@/@ @%   ",
"            F+` S y }.(@_@& :@<@[@}@x y Y+|@1@2@3@*+4@  ",
"            F+5@6@y 7@8@9@<.0@a@b@c@:+d@e@O.f@g@R+& h@  ",
"            i@j@k@l@m@n@o@& p@e@q@r@s@t@u@v@  w@*+& x@  ",
"            y@z@A@B@C@D@D@E@E@D@D@F@G@H@    I@J@& K@    ",
"                                      L@I@M@& & N@O@    ",
"                    J+P@P@P@P@P@P@P@T+ @& & +.Q@R@      ",
"                    S@[ [ [ [ [ [ [ [ [ o } T@M+        "};
