/* XPM */
static char *pixmap[] = {
/* width height ncols cpp */
"32 32 256 2",
  /* Colors */
  "00 c #E75231",
  "01 c #84A5CE",
  "02 c #5A6B84",
  "03 c #F75A31",
  "04 c #739CC6",
  "05 c #B53131",
  "06 c #425A73",
  "07 c #EF5231",
  "08 c #C63939",
  "09 c #E73131",
  "0A c #6B94BD",
  "0B c #8C3131",
  "0C c #6B1818",
  "0D c #FF6339",
  "0E c #C64231",
  "0F c #182129",
  "10 c #52637B",
  "11 c #FF6342",
  "12 c #9C2929",
  "13 c #521818",
  "14 c #422931",
  "15 c #F7734A",
  "16 c #5A7B9C",
  "17 c #D62121",
  "18 c #739CBD",
  "19 c #F76331",
  "1A c #6B8CB5",
  "1B c #843939",
  "1C c #779CBD",
  "1D c #BD3131",
  "1E c #DE3129",
  "1F c #B8CCDC",
  "20 c #7B2918",
  "21 c #6384A5",
  "22 c #7B3131",
  "23 c #7B3939",
  "24 c #631818",
  "25 c #888888",
  "26 c #EF5A29",
  "27 c #6B2929",
  "28 c #000000",
  "29 c #9C4242",
  "2A c #F79431",
  "2B c #9C3131",
  "2C c #6B2921",
  "2D c #AD2929",
  "2E c #4A637B",
  "2F c #526B8C",
  "30 c #EF4239",
  "31 c #84B5D6",
  "32 c #9C3931",
  "33 c #733131",
  "34 c #4A6384",
  "35 c #7BA5CE",
  "36 c #7198B9",
  "37 c #B5CADE",
  "38 c #A1ADB9",
  "39 c #65849C",
  "3A c #5A4A4A",
  "3B c #FF7331",
  "3C c #F77331",
  "3D c #BD5221",
  "3E c #BD4A21",
  "3F c #7394B5",
  "40 c #060603",
  "41 c #A53931",
  "42 c #FF845A",
  "43 c #211818",
  "44 c #A9B9CA",
  "45 c #4A6B84",
  "46 c #842929",
  "47 c #BD6329",
  "48 c #313131",
  "49 c #F77B31",
  "4A c #39526B",
  "4B c #63738C",
  "4C c #AD2121",
  "4D c #844545",
  "4E c #FF6B4A",
  "4F c #AD6B18",
  "50 c #BD988C",
  "51 c #081018",
  "52 c #B0C2CF",
  "53 c #942921",
  "54 c #FFF1A5",
  "55 c #8CB5D6",
  "56 c #D6CECE",
  "57 c #FF7352",
  "58 c #5A1818",
  "59 c #4A6373",
  "5A c #B5CADA",
  "5B c #7394BD",
  "5C c #29394A",
  "5D c #A9B1BD",
  "5E c #212E3F",
  "5F c #394A5A",
  "60 c #B53918",
  "61 c #7BADD6",
  "62 c #101821",
  "63 c #94C6D6",
  "64 c #8CBDD6",
  "65 c #8C4242",
  "66 c #526B7B",
  "67 c #84ADD6",
  "68 c #EF3131",
  "69 c #73A5CE",
  "6A c #424242",
  "6B c #C63131",
  "6C c #E9A53B",
  "6D c #FFB695",
  "6E c #C2DAEB",
  "6F c #5A7394",
  "70 c #638CAD",
  "71 c #5A6B7B",
  "72 c #EF3931",
  "73 c #425A6B",
  "74 c #292929",
  "75 c #292121",
  "76 c #946363",
  "77 c #F3CE46",
  "78 c #94B5D6",
  "79 c #CE7329",
  "7A c #F3C643",
  "7B c #000818",
  "7C c #7B2118",
  "7D c #EF4A31",
  "7E c #D64231",
  "7F c #5A2121",
  "80 c #4A6B8C",
  "81 c #423939",
  "82 c #5A1000",
  "83 c #F3B795",
  "84 c #E84F21",
  "85 c #31425A",
  "86 c #B9CEE3",
  "87 c #FE5A26",
  "88 c #F24C21",
  "89 c #BDE7E7",
  "8A c #FF7B5A",
  "8B c #CE4231",
  "8C c #C61818",
  "8D c #A5B1BD",
  "8E c #424A52",
  "8F c #FF8C63",
  "90 c #8C9094",
  "91 c #F55923",
  "92 c #BD9C8C",
  "93 c #392121",
  "94 c #5A84A5",
  "95 c #FBCA9A",
  "96 c #FFE6A3",
  "97 c #527B94",
  "98 c #B1C6D6",
  "99 c #A5C6E7",
  "9A c #101818",
  "9B c #D6EFFF",
  "9C c #7BA5C6",
  "9D c #F7A638",
  "9E c #312929",
  "9F c #808080",
  "A0 c #1A170B",
  "A1 c #291818",
  "A2 c #5A7384",
  "A3 c #638CB5",
  "A4 c #CEC6C6",
  "A5 c #731818",
  "A6 c #BD4218",
  "A7 c #F32525",
  "A8 c #E74A21",
  "A9 c #394A63",
  "AA c #070503",
  "AB c #521810",
  "AC c #FFB594",
  "AD c #A1ADB5",
  "AE c #DE4218",
  "AF c #FFB494",
  "B0 c #838381",
  "B1 c #314A63",
  "B2 c #526373",
  "B3 c #4A1818",
  "B4 c #F7A93A",
  "B5 c #6B4218",
  "B6 c #523118",
  "B7 c #BBCEDE",
  "B8 c #E77329",
  "B9 c #101829",
  "BA c #A56363",
  "BB c #E85522",
  "BC c #738494",
  "BD c #B9948C",
  "BE c #AD4A31",
  "BF c #B13118",
  "C0 c #B9D2E7",
  "C1 c #A5B5C6",
  "C2 c #8C2121",
  "C3 c #8CADD6",
  "C4 c #E4461F",
  "C5 c #7B5A18",
  "C6 c #ADCEE7",
  "C7 c #5A7B94",
  "C8 c #EB1D1D",
  "C9 c #FFC845",
  "CA c #732118",
  "CB c #52738C",
  "CC c #BD4221",
  "CD c #FFDCA0",
  "CE c #A5B1C2",
  "CF c #9C5252",
  "D0 c #A5C6D6",
  "D1 c #A5BDD6",
  "D2 c #FFE24B",
  "D3 c #9CC6F7",
  "D4 c #734231",
  "D5 c #BDA190",
  "D6 c #6384AD",
  "D7 c #FBB293",
  "D8 c #A51818",
  "D9 c #421818",
  "DA c #FF6328",
  "DB c #6B8CAD",
  "DC c #738CA5",
  "DD c #AD4239",
  "DE c #F4C097",
  "DF c #F66127",
  "E0 c #FBB595",
  "E1 c #632110",
  "E2 c #8CA5C6",
  "E3 c #FF6227",
  "E4 c #849CBD",
  "E5 c #BD9CA5",
  "E6 c #E75221",
  "E7 c #F73131",
  "E8 c #8494A5",
  "E9 c #F4AE92",
  "EA c #BD5A29",
  "EB c #738CAD",
  "EC c #DA391A",
  "ED c #4A0800",
  "EE c #425A7B",
  "EF c #FBB795",
  "F0 c #DE4221",
  "F1 c #B52121",
  "F2 c #A52121",
  "F3 c #C6A5AD",
  "F4 c #8494B5",
  "F5 c #F55D27",
  "F6 c #73524A",
  "F7 c #7B9CC6",
  "F8 c #527394",
  "F9 c #212121",
  "FA c #6B94B5",
  "FB c #E73931",
  "FC c #101010",
  "FD c #181818",
  "FE c #FFFFFF",
  ".. s None c None",
  "..D121F82F2F2FF8F8F8F8F8F8F8F8F8F8F8F8F8F8F8F8F86F1616166F2E71..",
  "C689DB2E5959B266020202020202020202020202020202024B39F4E2EB2E5C8E",
  "C399C1FEFEFEFEFEFEFEFEFEFEFEFEFEFEFEFEFEFEFEFEFEFEFEFEFEFEBC5E85",
  "18C7FE9B646769040404040404040404040418181818185BFAD61645FE78345E",
  "FAA2FED06361040AFAFAFAFAFAFAFAFAFAFAFAFAFAFA1AA321974506FE944A9A",
  "3F66FE63551C1C363636361F1F1F1F1F4F65224D1B4F5216F83406FE1AF85E28",
  "5B10FE64611C04FAFAFA5A33142222CF03030349033348C58D06FE0A21A951..",
  "F710FE55351CFAFA39523314FB092B0507FBFBFBFB2D5353B5FD37FA066228..",
  "9C10FE31351CFA393944141414140503FB032929FBFBD823E1F9FD380F28....",
  "0110FE31351CFA524414F93AF3AE2219190707173C071E4CD982FDFD9FFC....",
  "0110FE3169B75A2B582AA1E53A1919FBF1FB0300DDB8FB092424EDFDFD25....",
  "0110FE6EC02B122A1119F975030000070829FB07071109FD09FDFDF9FDFD....",
  "015D0CB6122A3C3B42570700FB0B0000E60829080D15FB46FDF9FDFDD525FE..",
  "010C582A3B3B428F4E006B050B3A007DF000081B0D111517FDFDF9FDFD25....",
  "010C2D0957424E00090527469E760B00000D150DA711151E241DFDFDF9FD....",
  "010C092D4900FB081D2C132C758141000D11008B17FB151EFD05FDF9FDFDFD..",
  "010C007E051D05A5FDF9FD132C7408118A2617BE2DFB0D17FBFDF9FD9225FE..",
  "010C001D0846FD5643131312084826110017721B4CFB191E41F9F9F9FDFC....",
  "010C12F2FD5643F9132C12080B08A8001E68033C8C3030170BFDFDFD43FD....",
  "015D0CA4FD13131209FB030803071D05720B4907C8306B0527FDF9DE5025....",
  "01104D0C12FB0303092B22B3F9F993F90BFB031B15261705F9FDFDFDBDFC....",
  "0110FE7F0C1212C22438ADFE37376A0E0E650DFB261E090527FDF9FD50FC....",
  "0110FE6E869844CE3873FE0A1A0690F90BFB07261109052327FDFD8320FC....",
  "0171FE31042180EE73FE0AFA060FB0240EFB110D00FBE7090523FDFD20FC....",
  "0102FE670A163406FE0AFA060F4054130E1D030D15680BFB411BF9E920FC....",
  "014BFE3570CB06FE0AFA060F40D254FD0B0EFBFB0532D4231B48ACBB20FC....",
  "01DCFE0A162EFE0AFA060F40777796FD0E30FB320E0E32236A6DE38420FC....",
  "3FE4FE2145FE0AFA060FA07A7AC9CDFDFBFB0E32274D766DAFDA87C4CAFC....",
  "3F78FEFEFE0A1A060FAA6C6CB49D95FDFD7433BAEFE0D7DFF59188ECABFC....",
  "70D3E81A1AF84A0F287979474747EA3D3D3D3E3E3ECCA66060BFBF7CF6FC....",
  "5F2FB1344A5C6228FCFCFCFCFCFCFCFCFCFCFCFCFCFCFCFCFCFCFCFCFC......",
  "..5FB97B0F51....................................................",
};
