/* XPM */
static char *pixmap[] = {
/* width height ncols cpp */
"16 16 97 2",
  /* Colors */
  "00 c #FFFFFF",
  "01 c #72A0CD",
  "02 c #709ECA",
  "03 c #6E9BC7",
  "04 c #6D9AC5",
  "05 c #577A9D",
  "06 c #415B76",
  "07 c #45617D",
  "08 c #709DCA",
  "09 c #34495F",
  "0A c #32465B",
  "0B c #6D99C4",
  "0C c #B7D0E9",
  "0D c #7DB0E2",
  "0E c #7CAEE0",
  "0F c #CE1818",
  "10 c #7B1818",
  "11 c #8C0808",
  "12 c #A52121",
  "13 c #843131",
  "14 c #943131",
  "15 c #392929",
  "16 c #5F85AB",
  "17 c #5F86AC",
  "18 c #344A5F",
  "19 c #6992BD",
  "1A c #7DAEE0",
  "1B c #7DAFE1",
  "1C c #7AABDC",
  "1D c #212121",
  "1E c #6B2121",
  "1F c #631010",
  "20 c #DE5A31",
  "21 c #EF6B42",
  "22 c #735239",
  "23 c #636363",
  "24 c #311821",
  "25 c #5C81A6",
  "26 c #000000",
  "27 c #7BACDD",
  "28 c #EF3131",
  "29 c #C60808",
  "2A c #292929",
  "2B c #ADADAD",
  "2C c #AD2929",
  "2D c #EF6B5A",
  "2E c #CE4221",
  "2F c #C64242",
  "30 c #422931",
  "31 c #F7947B",
  "32 c #E73131",
  "33 c #F77B4A",
  "34 c #D65231",
  "35 c #BD3131",
  "36 c #AD3131",
  "37 c #E76339",
  "38 c #DE5A4A",
  "39 c #B53131",
  "3A c #181818",
  "3B c #F77352",
  "3C c #BD5A42",
  "3D c #DE3129",
  "3E c #423131",
  "3F c #732929",
  "40 c #635A5A",
  "41 c #EF8463",
  "42 c #4A2929",
  "43 c #736363",
  "44 c #CE5A42",
  "45 c #CE4A4A",
  "46 c #B52121",
  "47 c #F77B5A",
  "48 c #525252",
  "49 c #6B2929",
  "4A c #AD2100",
  "4B c #EF4231",
  "4C c #DE2929",
  "4D c #5C80A5",
  "4E c #597DA1",
  "4F c #557799",
  "50 c #D4DCE4",
  "51 c #3D566F",
  "52 c #313131",
  "53 c #AD4242",
  "54 c #F7846B",
  "55 c #800000",
  "56 c #587B9E",
  "57 c #56789B",
  "58 c #3D5770",
  "59 c #522929",
  "5A c #3E5770",
  "5B c #FF9600",
  "5C c #CE4231",
  "5D c #3F5871",
  "5E c #2E4255",
  "5F c #2E4154",
  ".. s None c None",
  "..0102030405050505050505050607..",
  "0801000000000000000000000000090A",
  "0B000C0D0E0F10111213141516170018",
  "19001A1B1C1D1E1F2021132223242526",
  "05002728292A2B2C2D2E2D2F2A2430..",
  "310F32333435363512372038393A3030",
  "3A333B212D213C2D3C3D212D36153E..",
  "3F3C2D3C401D1D2D21412C3739423030",
  "333C1D431D3C44212D454647144248..",
  "0549403C2D2D3C3C454A2F2039243E30",
  "05003649494949134B3B414C421530..",
  "05004D4E4F50515253542114281D55..",
  "05005657505826524421284B325930..",
  "06004F505A265B135C2F5C13242455..",
  "5D5E005A265555303E3013555555....",
  "..5F5F26........................",
};
