/* XPM */
static char * zap_xpm[] = {
"32 32 3 1",
" 	c None",
".	c #FFFFFF",
"+	c #FF0000",
"                                ",
"                                ",
"                                ",
"                         ....   ",
"                       ..+++..  ",
"                       .+++++.  ",
"                       .+++++.  ",
"                       .++++..  ",
"                       .++++..  ",
"                       .++++..  ",
"                       .++++.   ",
"                       .++++.   ",
"                  ..   .+++..   ",
" .......   ..... .++....+++..   ",
".+++++++. .+++++..++.+++.++..   ",
".+++++++..++++++..+++++++.+.    ",
" ....++..+++..++..++...++.+.    ",
"   .++. .++. .++..++. .++.+.    ",
"  .++.  .++. .++..++. .++...    ",
" .++... .++...++..++...++..     ",
".++++++..+++++++..++++++.+.     ",
".+++++++..++++.++.+++++....     ",
" .......  .... ...++......      ",
"                 .++. .++..     ",
"                 .++..++++.     ",
"                 .++.++++++.    ",
"                 .++.++++++.    ",
"                  ...++++++.    ",
"                    .+++++.     ",
"                     .++..      ",
"                      ...       ",
"                                "};
