/* XPM */
static char * zap16_xpm[] = {
"16 16 7 1",
" 	c None",
".	c #FFFFFF",
"+	c #FF4040",
"@	c #FF0000",
"#	c #FFBFBF",
"$	c #FF8080",
"%	c #FFAAAA",
"                ",
"             .  ",
"           .+@# ",
"            @@# ",
"           .@@. ",
"            @@  ",
". ..     $..@$  ",
"$@@@.+@@.@+@$$  ",
" .+%$+.@.@ $$$  ",
" +# $$ @.@.$$.  ",
"$@@+#@@+#@@+#   ",
" . . . ..@ ##   ",
"         @#@@%  ",
"        .$$@@$  ",
"          %@$.  ",
"           ..   "};
