/* XPM */
static char *tb_mixsecurity[] = {
/* columns rows colors chars-per-pixel */
"23 21 12 1",
"  c Black",
". c #222222",
"X c #333366",
"o c #6666cc",
"O c #800000",
"+ c #990066",
"@ c Magenta",
"# c #808000",
"$ c #9999ff",
"% c #c0c0c0",
"& c Gray100",
"* c None",
/* pixels */
"****oo   **************",
"***o%&&%$ *************",
"***o&X o$ *************",
"***o& *.$ *************",
"***o% *X% *************",
"*oX$oXXoXoX ***********",
"*o$%&&%$$oX ***********",
"*o$&ooooooX ***********",
"*o$&%%%$$oX ***Xoo   **",
"*o$&ooooooX **X%&&%%o *",
"*o$&%%%$$oX **X&% Oo$O*",
"*oXXXXX.oo ***X%X**.oO*",
"********ooo   o%Xo*o  *",
"*******o& ####ooo *****",
"*******o&%$$$$$$O *****",
"*******o&$+++++Oo *****",
"*******o&%######O *****",
"*******o&$+++++Oo *****",
"*******o&%######o *****",
"*******oo......   *****",
"***********************"
};

/* -*- Mode: xpm; tab-width: 4; indent-tabs-mode: nil; c-basic-offset: 2 -*-
 *
 * ***** BEGIN LICENSE BLOCK *****
 * Version: MPL 1.1/GPL 2.0/LGPL 2.1
 * 
 * The contents of this file are subject to the Mozilla Public License Version
 * 1.1 (the "License"); you may not use this file except in compliance with
 * the License. You may obtain a copy of the License at
 * http://www.mozilla.org/MPL/
 * 
 * Software distributed under the License is distributed on an "AS IS" basis,
 * WITHOUT WARRANTY OF ANY KIND, either express or implied. See the License
 * for the specific language governing rights and limitations under the
 * License.
 * 
 * The Original Code is the Xfe Widgets.
 * 
 * The Initial Developer of the Original Code is
 * Netscape Communications Corporation.
 * Portions created by the Initial Developer are Copyright (C) 1998
 * the Initial Developer. All Rights Reserved.
 * 
 * Contributor(s):
 * 
 * Alternatively, the contents of this file may be used under the terms of
 * either of the GNU General Public License Version 2 or later (the "GPL"),
 * or the GNU Lesser General Public License Version 2.1 or later (the "LGPL"),
 * in which case the provisions of the GPL or the LGPL are applicable instead
 * of those above. If you wish to allow use of your version of this file only
 * under the terms of either the GPL or the LGPL, and not to allow others to
 * use your version of this file under the terms of the MPL, indicate your
 * decision by deleting the provisions above and replace them with the notice
 * and other provisions required by the GPL or the LGPL. If you do not delete
 * the provisions above, a recipient may use your version of this file under
 * the terms of any one of the MPL, the GPL or the LGPL.
 * 
 * ***** END LICENSE BLOCK ***** */
/*-----------------------------------------*/
